<svg width="250" height="364" viewBox="0 0 250 364" fill="none" xmlns="http://www.w3.org/2000/svg">
<path fill-rule="evenodd" clip-rule="evenodd" d="M218.925 48.9314C230.119 37.7376 230.119 19.589 218.925 8.3953C207.731 -2.79843 189.583 -2.79843 178.389 8.3953L42.1484 144.636C41.5452 145.239 40.9746 145.862 40.4364 146.504C39.1421 147.694 37.8669 148.917 36.6116 150.173C-12.2039 198.988 -12.2039 278.134 36.6117 326.949C85.4272 375.765 164.573 375.765 213.388 326.949C262.204 278.134 262.204 198.988 213.388 150.173C201.059 137.843 186.794 128.628 171.572 122.526C163.145 119.148 159.933 107.923 166.353 101.503L218.925 48.9314ZM172.852 286.413C146.424 312.841 103.576 312.841 77.1478 286.413C50.7197 259.985 50.7197 217.137 77.1477 190.709C103.576 164.281 146.424 164.281 172.852 190.709C199.28 217.137 199.28 259.985 172.852 286.413Z" fill="#fff"/>
</svg>
